<?xml version="1.0" standalone="no"?>
<!DOCTYPE svg PUBLIC "-//W3C//DTD SVG 20010904//EN"
 "http://www.w3.org/TR/2001/REC-SVG-20010904/DTD/svg10.dtd">
<svg version="1.0" xmlns="http://www.w3.org/2000/svg"
 width="300.000000pt" height="300.000000pt" viewBox="0 0 300.000000 300.000000"
 preserveAspectRatio="xMidYMid meet">
<metadata>
Created by potrace 1.11, written by Peter Selinger 2001-2013
</metadata>
<g transform="translate(0.000000,300.000000) scale(0.100000,-0.100000)"
fill="#000000" stroke="none">
<path d="M1108 1653 c-3 -398 -5 -411 -61 -472 -51 -55 -167 -69 -247 -28 -40
19 -98 87 -112 128 -5 14 -148 -27 -148 -42 0 -28 58 -128 97 -167 77 -76 190
-108 328 -91 134 17 216 80 267 206 22 57 23 67 26 446 l3 387 -75 0 -75 0 -3
-367z"/>
<path d="M1490 1505 l0 -516 258 3 c292 5 330 12 406 79 63 56 90 123 90 229
1 69 -3 93 -21 126 -25 48 -83 101 -118 110 -23 6 -22 8 29 58 46 44 55 60 66
109 24 116 -24 229 -121 282 l-54 30 -267 3 -268 3 0 -516z m500 360 c82 -42
80 -187 -3 -232 -27 -15 -59 -18 -192 -18 l-160 0 -3 133 -3 132 166 0 c129 0
173 -3 195 -15z m-39 -395 c97 -18 143 -73 142 -171 -1 -70 -24 -114 -73 -144
-31 -18 -56 -20 -212 -23 l-178 -4 0 170 c0 93 3 172 7 175 10 11 254 8 314
-3z"/>
</g>
</svg>
