<svg xmlns="http://www.w3.org/2000/svg" width="1000" height="347.452"><defs><clipPath id="g"><path d="M0-.574h1V.574H0V-.574z"/></clipPath><linearGradient x2="1" gradientUnits="userSpaceOnUse" gradientTransform="rotate(-38 1198.55 64.17) scale(35.65)" id="h"><stop offset="0" stop-color="#fff"/><stop offset="1" stop-color="#1f2569"/></linearGradient><clipPath id="i"><path d="M310.565 761.806v-42.613h11.955v42.612h-11.955z"/></clipPath><clipPath id="a"><path d="M0-.574h1V.574H0V-.574z"/></clipPath><linearGradient x2="1" gradientUnits="userSpaceOnUse" gradientTransform="rotate(-38 1242.75 -63.48) scale(35.66)" id="b"><stop offset="0" stop-color="#fff"/><stop offset="1" stop-opacity=".5" stop-color="#fff"/></linearGradient><mask maskUnits="userSpaceOnUse" x="0" y="0" width="1" height="1" id="k"><g clip-path="url(#a)"><path d="M315.096 767.606l28.098-21.952-25.205-32.26-28.1 21.95 25.2 32.262z" fill="url(#b)"/></g></mask><clipPath id="j"><path d="M0-.574h1V.574H0V-.574z"/></clipPath><linearGradient x2="1" gradientUnits="userSpaceOnUse" gradientTransform="rotate(-38 1242.75 -63.48) scale(35.66)" id="l"><stop offset="0" stop-color="#fff"/><stop offset="1" stop-color="#1f2569"/></linearGradient><clipPath id="m"><path d="M339.795 761.793c-.113 0-12.423-21.408-12.423-21.408l13.374-21.19H354l-13.73 21.19h-3.673l12.188 21.408h-8.99z"/></clipPath><clipPath id="c"><path d="M-.262-.6H1V.735H-.262V-.6z"/></clipPath><linearGradient x2="1" gradientUnits="userSpaceOnUse" gradientTransform="rotate(-38 1256.19 -105.52) scale(37.42)" id="d"><stop offset="0" stop-color="#fff"/><stop offset="1" stop-opacity=".5" stop-color="#fff"/></linearGradient><mask maskUnits="userSpaceOnUse" x="0" y="0" width="1" height="1" id="o"><g clip-path="url(#c)"><path d="M337.465 774.712l37.202-29.066-30.76-39.37-37.202 29.065 30.76 39.38z" fill="url(#d)"/></g></mask><clipPath id="n"><path d="M-.262-.6H1V.735H-.262V-.6z"/></clipPath><linearGradient x2="1" gradientUnits="userSpaceOnUse" gradientTransform="rotate(-38 1256.19 -105.52) scale(37.42)" id="p"><stop offset="0" stop-color="#fff"/><stop offset="1" stop-color="#1f2569"/></linearGradient><clipPath id="q"><path d="M281.42 761.806v-27.218c-3.403 5.094-17.838 27.218-17.838 27.218h-9.742v-42.612h10.563v27.343c3.29-4.964 18.074-27.343 18.074-27.343h9.507v42.612H281.42z"/></clipPath><clipPath id="e"><path d="M0-.507h1V.507H0V-.507z"/></clipPath><linearGradient x2="1" gradientUnits="userSpaceOnUse" gradientTransform="rotate(-38 1226.21 14.64) scale(56.3)" id="f"><stop offset="0" stop-color="#fff"/><stop offset="1" stop-opacity=".5" stop-color="#fff"/></linearGradient><mask maskUnits="userSpaceOnUse" x="0" y="0" width="1" height="1" id="s"><g clip-path="url(#e)"><path d="M268.298 780.31l44.36-34.656-35.132-44.965-44.36 34.65 35.134 44.97z" fill="url(#f)"/></g></mask><clipPath id="r"><path d="M0-.507h1V.507H0V-.507z"/></clipPath><linearGradient x2="1" gradientUnits="userSpaceOnUse" gradientTransform="rotate(-38 1226.21 14.64) scale(56.3)" id="t"><stop offset="0" stop-color="#fff"/><stop offset="1" stop-color="#1f2569"/></linearGradient><clipPath id="u"><path d="M396.348 174.24h52.65v18.26h-52.65v-18.26z"/></clipPath></defs><g clip-path="url(#g)" transform="matrix(1.25 0 0 -1.25 -379.52 1372.06)"><path d="M222.632 761.806v-42.613h11.947v42.613h-11.95z" fill="url(#h)"/></g><g clip-path="url(#i)" transform="matrix(1.25 0 0 -1.25 -379.52 1372.06)"><g clip-path="url(#j)" mask="url(#k)"><path d="M310.565 761.806v-42.613h11.955v42.612h-11.955z" fill="url(#l)"/></g></g><g clip-path="url(#m)" transform="matrix(1.25 0 0 -1.25 -379.52 1372.06)"><g clip-path="url(#n)" mask="url(#o)"><path d="M339.795 761.793c-.113 0-12.423-21.408-12.423-21.408l13.374-21.19H354l-13.73 21.19h-3.673l12.188 21.408h-8.99z" fill="url(#p)"/></g></g><g clip-path="url(#q)" transform="matrix(1.25 0 0 -1.25 -379.52 1372.06)"><g clip-path="url(#r)" mask="url(#s)"><path d="M281.42 761.806v-27.218c-3.403 5.094-17.838 27.218-17.838 27.218h-9.742v-42.612h10.563v27.343c3.29-4.964 18.074-27.343 18.074-27.343h9.507v42.612H281.42z" fill="url(#t)"/></g></g><g clip-path="url(#u)" transform="matrix(18.97 0 0 -18.97 -7520.05 3653.1)"><path d="M443.17 185.186c2.664 0 2.828-2.277 2.828-2.43h-5.904c.026.21.53 2.43 3.076 2.43m.32-8.438c-1.997 0-3.51 1.45-3.51 3.8h9.018c0 1.568-.194 3.502-1.343 4.965-1.162 1.436-2.646 2.135-4.533 2.135-3.634 0-6.17-2.73-6.17-6.64 0-3.166 2.21-6.738 6.53-6.738h.004c3.833 0 5.27 3.052 5.366 4.38h-2.754s-.198-1.902-2.61-1.902m-9.528 10.445v3.895l-2.803-2.705v-1.19h-1.9v-2.007h1.9v-7.983c0-2.388 2-2.94 3.61-2.94h.98v2.683c-1.133.038-1.79.306-1.79 1.086l.002 7.154h2.77v2.007h-2.78zm-8.777-6.555c0-1.748 0-2.337-.816-3.07-.604-.52-1.44-.82-2.294-.82-1.55 0-2.1.85-2.1 1.58 0 1.603 2.09 1.79 2.712 1.914 1.344.276 2.25.563 2.25.563l.248.063v-.23zm2.94-2.935v5.867c0 1.835-.496 4.076-5.3 4.076-.93 0-2.654-.117-3.79-.903-1.412-.965-1.585-2.32-1.64-3.095h2.74c.112.74.373 1.74 2.587 1.74 2.463 0 2.463-1.386 2.463-2.13v-.115s-.39-.308-2.85-.737c-2.545-.443-4.236-.67-5.083-2.44-.228-.505-.347-1.11-.347-1.792 0-1.915 1.15-3.924 4.39-3.924 2.76 0 3.94 1.613 3.94 1.613l.078-.578.11-.645h3.18c-.38 1.172-.44 1.877-.463 3.063m-15.707-3.063h2.815v16.448h-2.816v-16.45zm-8.644 15.414c2.5-.07 3.912-1.623 4.53-2.482.002-.003 2.1 1.918 2.1 1.918-.345.453-2.44 2.888-6.59 3.006-4.336.125-6.683-2.536-6.76-5.228-.035-1.253.49-2.452 1.436-3.29 1.02-.885 2.34-1.235 3.63-1.58l2.468-.576c1.175-.27 3.14-.723 3.09-2.48-.038-1.306-1.332-2.587-4.137-2.508-3.126.09-4.345 1.785-4.91 2.737-.516-.49-1.6-1.51-2.29-2.18.67-.84 1.87-2.01 3.94-2.65.84-.265 1.825-.446 2.98-.48 3.784-.107 7.46 1.375 7.5 5.538.015 1.308-.38 2.407-1.245 3.27-.405.393-.854.686-1.324.914-.12.06-.24.114-.364.165-.465.19-.94.33-1.407.446-.256.063-.505.12-.75.175-.01 0-2.38.52-2.444.537-1.27.31-3.19.76-3.14 2.42.03 1.02 1.19 2.42 3.68 2.35" fill="#fff"/></g></svg>