<svg id="Layer_1" data-name="Layer 1" xmlns="http://www.w3.org/2000/svg" viewBox="0 0 99.67 48.25">
  <defs>
    <style>
      .cls-1 {
        fill: #fff;
      }
    </style>
  </defs>
  <title>vox</title>
  <path class="cls-1" d="M45.92,26.58h1.42l0.17-.67H29.67l-0.17.67h2.58c2.25,0,4.08,1.58,4.08,4.67,0,1.75-.75,4-2,6.75L22.58,63.58,19.75,30.33c-0.25-2.58,1.08-3.75,4-3.75h1.67l0.17-.67H0.42l-0.25.67H1.75c2,0,2.75,1.25,2.92,3.58l4.5,43H19.75L37.5,35.58C40.25,30,43.08,26.58,45.92,26.58ZM43.83,73.33c-1.58,0-2.58-.5-2.58-3.17,0-3.33,1.25-9.92,2.58-15.92,0.17,2.75,2.08,5.5,4.92,5.5a12.48,12.48,0,0,0,1.83-.17C47.92,71,46.92,73.33,43.83,73.33Zm50.5-22.58c3.33,0,5.5-2.75,5.5-5.92a4.51,4.51,0,0,0-4.67-4.67c-4.92,0-7.25,3.92-11.33,11.08-0.83-4.5-2.92-10.33-8.08-10.33-5.83,0-12.58,8.33-18.75,13.5-2.83,2.42-5.92,3.92-8.42,3.92s-4.08-2.58-4.08-7.17c1.83-7.5,2.75-9.42,5.58-9.42,1.92,0,2.75,1.08,2.75,3.33a61.4,61.4,0,0,1-1.58,11.5c2.75-.83,6.92-4.33,10.42-8.08a11.85,11.85,0,0,0-11.5-7.42c-10.58,0-19.92,9.5-19.92,20.17,0,7.33,5.25,12.92,13.42,12.92,13.5,0,19.17-11.67,19.17-19.83,0-1.17-.08-2-0.17-3.08,2.08-2.25,4.75-4.42,6.92-4.42,2.5,0,4.5,6.25,6.42,15.67-1.75,1.92-3.5,5.58-4.33,6.25-0.33-3.33-2.58-5.42-5.5-5.42-3.33,0-5.58,3.17-5.58,5.83a4.73,4.73,0,0,0,4.83,5c5.75,0,7.33-5.42,10.92-10.25,1.08,5.17,3.67,10.25,8.08,10.25,5.25,0,10.08-4.5,12.58-7.67l-0.5-.75c-1.58,1.58-3.17,2.58-5,2.58-3.25,0-5.58-7-7.33-15.5,1.08-1.42,2.75-5.08,3.92-6.42C88.83,47.92,90.5,50.75,94.33,50.75Z" transform="translate(-0.17 -25.92)"/>
</svg>
