<svg id="Layer_1" data-name="Layer 1" xmlns="http://www.w3.org/2000/svg" viewBox="0 0 417.14 73.87">
  <defs>
    <style>
      .cls-1 {
        fill: #fff;
      }
    </style>
  </defs>
  <title>buzzfeed</title>
  <g>
    <path class="cls-1" d="M89.07,384.05c11.74,0,23.49-.16,35.23.11A18,18,0,0,1,142,398.91c1.73,9.5-3.2,17.62-10.81,19.79a2.69,2.69,0,0,0-.61.42c7.25,2.08,11.58,6.87,12.8,14.06,2,11.86-4.53,21.61-16.89,23a78.63,78.63,0,0,1-8.29.31c-9.69.05-19.39,0-29.08,0.07Q89.07,420.3,89.07,384.05Zm15.61,58.66a2.07,2.07,0,0,0,.6.2c4.87,0,9.74.18,14.6,0,5-.24,8-3.33,8.14-7.88s-2.63-7.87-7.55-8.46a89.92,89.92,0,0,0-9.43-.25c-2.09,0-4.17,0-6.36,0C104.68,431.81,104.68,437.15,104.68,442.71Zm-0.11-29.93c4.54,0,8.84,0,13.15,0a12.89,12.89,0,0,0,2.48-.16c3-.61,5.33-2.17,6.13-5.34a7.51,7.51,0,0,0-7.18-9.68c-2.43-.12-4.87,0-7.31,0h-7.16c0,0.52-.1.84-0.1,1.16C104.57,403.31,104.58,407.9,104.58,412.78Z" transform="translate(-89.07 -384.01)"/>
    <path class="cls-1" d="M369.08,457.88c-1.84-.34-3.69-0.6-5.5-1-14.2-3.4-21.43-15.62-20.19-29.13,1-11.31,6.74-19.57,17.6-23.4,15.16-5.34,32.73,1.87,35.33,22,0.34,2.66.33,5.38,0.49,8.3H357.66c0.91,5,3.41,8.45,7.78,10.31,7.1,3,13.75,1.51,20-2.53,0.37-.24.71-0.52,1.07-0.78a1.24,1.24,0,0,1,.36,0l6.13,9c-2,1.26-3.88,2.62-5.92,3.65a32.33,32.33,0,0,1-11.95,3.23,9.39,9.39,0,0,0-1.41.33h-4.66Zm14.2-32.77c0.27-6.51-5.93-11.48-13.79-11.17-6.53.26-12.34,5.79-11.64,11.17h25.43Z" transform="translate(-89.07 -384.01)"/>
    <path class="cls-1" d="M425.29,457.88c-2.26-.45-4.55-0.78-6.77-1.39a25.64,25.64,0,0,1-18.84-22.8c-0.91-10.32,2.08-19.06,10.37-25.57,12.55-9.86,37.21-7.62,42.11,15.71a35.55,35.55,0,0,1,.66,5.09c0.11,1.81,0,3.64,0,5.73H414a12,12,0,0,0,3.35,7.2c4.3,4.44,9.67,5.27,15.47,4.26a20.67,20.67,0,0,0,10.18-4.68l6.26,9.18c-1.63,1.09-3.11,2.24-4.73,3.13a33.1,33.1,0,0,1-13,3.8,12.81,12.81,0,0,0-1.57.34h-4.66ZM414,425.1H439.5c0.33-6.31-5.73-11.32-13.34-11.18C419.41,414.06,413.56,419.4,414,425.1Z" transform="translate(-89.07 -384.01)"/>
    <path class="cls-1" d="M167.89,457.88c-1.66-.34-3.34-0.64-5-1-10.23-2.44-16.27-10.09-16.27-20.61q0-15.13,0-30.26v-1.81h13.82v1.93c0,9.53,0,19.06,0,28.59,0,4.32,1.3,8,5.4,9.87,4.44,2,9,2,13.09-1,3-2.14,3.86-5.42,3.87-8.94q0-14.21,0-28.43v-2.08h13.67c0,0.6,0,1.23,0,1.87q0,15,0,29.92c0,12-7.5,20.31-19.5,21.57a16.74,16.74,0,0,0-1.76.37h-7.32Z" transform="translate(-89.07 -384.01)"/>
    <path class="cls-1" d="M298.39,456.38V384.1h50.28v7c0,1.55-.1,3.11,0,4.65s-0.48,1.83-1.89,1.82c-9.92-.06-19.84,0-29.76,0h-3.14v15.22h1.87c7.48,0,15,0,22.44,0,1.51,0,1.87.47,1.83,1.89-0.09,3.81,0,7.62,0,11.62H313.79v30.13h-15.4Z" transform="translate(-89.07 -384.01)"/>
    <path class="cls-1" d="M456.34,456.36v-1.9q0-24.26,0-48.53c0-2.12,0-2.14,2.19-2.12,7.59,0.07,15.2-.25,22.75.33,10.75,0.83,19.17,5.68,23.15,16.29,4,10.79,1,23.1-7.26,29.84a27.33,27.33,0,0,1-16.69,6.15c-7.8.28-15.62,0.09-23.43,0.09A4.45,4.45,0,0,1,456.34,456.36Zm13.18-11.09h7.61c8.93,0,14.55-5,15.55-13.91,0.72-6.38-2.73-12.72-8.22-15-4.84-2-9.89-.93-14.93-1.21C469.52,425.29,469.52,435.14,469.52,445.26Z" transform="translate(-89.07 -384.01)"/>
    <path class="cls-1" d="M224.33,416H200.91V404.12h42.34c0,2.24-.11,4.49,0,6.72a7.16,7.16,0,0,1-1.79,5.26c-7,8.76-14,17.61-20.94,26.43-0.37.47-.73,1-1.31,1.73h24.29v12.09H200.78c0-3.3,0-6.6,0-9.9a3.53,3.53,0,0,1,1-1.67q10.72-13.65,21.46-27.29C223.58,417.12,223.83,416.71,224.33,416Z" transform="translate(-89.07 -384.01)"/>
    <path class="cls-1" d="M247.31,416c0-3.74,0-7.17,0-10.61,0-.38.06-0.76,0.11-1.25h42.21c0,3.19,0,6.33,0,9.46a2.91,2.91,0,0,1-.81,1.39q-10.9,13.83-21.82,27.65c-0.36.46-.68,0.94-1.24,1.72h2.12c6.87,0,13.74,0,20.61,0,1.28,0,1.75.3,1.72,1.66-0.09,3.42,0,6.85,0,10.38H247.36c0-3.42,0-6.78,0-10.14a2.64,2.64,0,0,1,.75-1.24q10.47-13.33,21-26.65c0.53-.68,1.06-1.37,1.83-2.37h-23.6Z" transform="translate(-89.07 -384.01)"/>
  </g>
</svg>
