<svg id="Layer_1" data-name="Layer 1" xmlns="http://www.w3.org/2000/svg" viewBox="0 0 575.39 36.95">
  <defs>
    <style>
      .cls-1 {
        fill: #fff;
      }
    </style>
  </defs>
  <title>huffington</title>
  <g>
    <path class="cls-1" d="M17.78,382.94c0.52-3,1.32-6,2-9.06,4.13,3.06,9.49,1.53,14.23,1.87,5.51-.34,11.4,1.09,16.53-1.55-0.43,3-.77,6.09-1.21,9.13a37.44,37.44,0,0,0-2.78-4.9c-3.2-1.51-6.87-.8-10.29-0.88,0,8.84-.17,17.69.07,26.52-0.39,3.29,3.57,3.41,5.6,4.87-5.34.1-10.69,0.14-16-.05,1.81-.91,3.74-1.56,5.5-2.55,1.29-9.51.28-19.21,0.57-28.79-3,0-5.94-.31-8.84.35-2.2,1.14-3.52,3.42-5.36,5h0Z" transform="translate(-17.78 -373.59)"/>
    <path class="cls-1" d="M352.59,373.59l2.3,2c7.37,0.38,14.76.15,22.14,0.21a12.4,12.4,0,0,0,6.22-1.65c-0.46,3.06-.77,6.15-1.12,9.22-1.15-1.64-1.61-3.93-3.31-5.1-3.14-1.13-6.54-.65-9.8-0.72,0,8.86-.13,17.72,0,26.58-0.36,3.27,3.53,3.41,5.58,4.83-5.39.14-10.79,0.11-16.18,0a60.46,60.46,0,0,0,5.83-2.85c0.5-9.52.09-19.08,0.18-28.62-3.07.11-6.3-.41-9.24,0.68-1.8,1.39-3.12,3.3-4.72,4.89,0.51-3.19,1.32-6.33,2.08-9.47h0Z" transform="translate(-17.78 -373.59)"/>
    <path class="cls-1" d="M562.49,373.64l2.33,1.92c7.4,0.36,14.81.14,22.22,0.2a13,13,0,0,0,6.13-1.62c-0.47,3-.77,6.1-1.11,9.15-1.12-1.67-1.72-3.79-3.31-5.1-3.13-1.06-6.5-.62-9.74-0.71,0.21,9.62-.46,19.31.31,28.89,1.74,0.93,3.58,1.64,5.34,2.53-5.46.16-10.92,0.2-16.38,0,1.85-.85,3.78-1.5,5.63-2.34,0.73-2.08.57-4.32,0.62-6.48-0.07-7.51,0-15,0-22.54-3.09.1-6.33-.45-9.28,0.66-1.9,1.23-3.15,3.2-4.81,4.7,0.53-3.11,1.33-6.16,2.1-9.22h0Z" transform="translate(-17.78 -373.59)"/>
    <path class="cls-1" d="M91.15,375.73c7.94-.28,15.9.37,23.85-0.24a81.49,81.49,0,0,1,.44,8.26c-1.55-1.86-2.26-4.67-4.53-5.81-3.4-.79-6.93-0.36-10.39-0.42,0,4.35,0,8.71,0,13.07,2.9,0.05,6,.46,8.75-0.49,1-1.52,1.83-3.21,2.8-4.78q0.15,6.24,0,12.49c-1.09-1.6-2-3.34-3.13-4.88a70,70,0,0,0-8.45-.17c0.15,4.39-.58,8.91.62,13.2,3.52,1.9,7.86,1.44,11.67.8,2.63-1.2,3.91-4.17,6.14-5.93a52.69,52.69,0,0,1-2.17,8.29c-8.85-.3-17.71,0-26.56-0.19,1.73-1.16,4.21-1.45,5.49-3.13,0.67-4.91.13-9.9,0.29-14.84-0.14-4.18.41-8.42-.37-12.55-1.38-1.06-3-1.75-4.48-2.68h0Z" transform="translate(-17.78 -373.59)"/>
    <path class="cls-1" d="M207.76,375.78c7.83-.43,15.69.39,23.52-0.3,0,2.73,0,5.47-.18,8.2-1.14-1.8-1.84-4-3.45-5.44-3.33-1.32-7-.6-10.54-0.67-0.16,4.51-.17,9,0,13.54a44.94,44.94,0,0,0,9-.24c1.56-1.16,2-3.34,3.15-4.86a95.91,95.91,0,0,1,0,12.34c-1.21-1.55-1.79-3.75-3.41-4.91a62,62,0,0,0-8.73-.15c-0.14,4.43-.47,8.94.48,13.31a23.55,23.55,0,0,0,4.38,1.3v1.21c-4.53-.17-9.07-0.15-13.6,0L208.09,408c1.69-.7,4.54-0.68,4.51-3.13,0.24-8.88.36-17.81-.14-26.69-1.57-.79-3.16-1.55-4.7-2.41h0Z" transform="translate(-17.78 -373.59)"/>
    <path class="cls-1" d="M234,375.77c7.83-.39,15.7.38,23.54-0.28,0,2.71-.11,5.43-0.35,8.13-1.42-1.83-1.82-5-4.32-5.76-3.14-.7-6.41-0.28-9.6-0.32-0.08,4.52-.09,9,0,13.56a35.91,35.91,0,0,0,9.32-.37c1.07-1.51,1.88-3.18,2.9-4.72,0.14,4.12.12,8.24,0,12.36-1.27-1.58-1.89-3.83-3.6-5a71.22,71.22,0,0,0-8.65-.1c0,4.3-.44,8.67.39,12.92,1.69,1.12,3.63,1.79,5.41,2.74-4.85.11-9.71,0-14.56,0.1l-0.06-1a35.53,35.53,0,0,0,4-1.56c0.88-3.42.48-7,.56-10.49-0.12-5.94.32-11.92-.44-17.84-1.53-.77-3.08-1.49-4.54-2.38h0Z" transform="translate(-17.78 -373.59)"/>
    <path class="cls-1" d="M322.66,378.61c6.78-4.81,15.64-4.22,23.36-2.49a53.8,53.8,0,0,1,.42,8.69c-1.87-2.44-2.9-6-6-7.23-6.3-2.51-14.79-.42-17.83,6-3.11,6.81-1.89,15.91,3.73,21.08,4.08,3.2,10.56,4.8,15.13,1.84,1-2.83.39-5.88,0.22-8.79a30.5,30.5,0,0,1-6.56-2.07c5-.56,10.06-0.21,15.09-0.18a44,44,0,0,0-3.58,2.64,22.59,22.59,0,0,0,.71,9.88c-8.47,2.24-18.54,3.21-25.8-2.65-8.43-6.43-7.62-20.94,1.09-26.75h0Z" transform="translate(-17.78 -373.59)"/>
    <path class="cls-1" d="M544.33,376.32c4-2.38,8.88-1.36,13.2-.48a49.22,49.22,0,0,1,.34,7.37c-2-2.76-3.76-7-7.91-6.51a5.31,5.31,0,0,0-5.37,7.76c3,4.76,9.41,5.76,12.47,10.49,2.77,4,2,10.19-2.19,12.91-4.42,2.83-10.37,2.39-15,.2-1.54-2.62-1.34-5.83-1.33-8.75,2.28,3.56,4.33,8.62,9.32,8.71,4.82,0.77,8.28-4.7,6.08-8.87-2.84-4.9-9.38-5.94-12.38-10.73-2.63-3.86-1.53-9.88,2.72-12.1h0Z" transform="translate(-17.78 -373.59)"/>
    <path class="cls-1" d="M50.94,375.87a116.23,116.23,0,0,1,14.82-.15c-1.55.89-3.2,1.61-4.67,2.63-0.69,4-.24,8.07-0.31,12.1,6.39,0,12.79.13,19.19-.05-0.06-4,.43-8.18-0.45-12.16-1.45-1-3.12-1.54-4.63-2.39a102.41,102.41,0,0,1,14.76,0c-1.35,1.38-4.85,1.07-5,3.47-0.73,5.54-.21,11.15-0.37,16.72,0.12,3.56-.4,7.3.86,10.71,1.26,0.46,2.53.88,3.82,1.25-0.09.27-.26,0.83-0.34,1.11C84.07,409,79.55,409,75,409c1.49-1.14,3.54-1.71,4.64-3.25,0.71-4.25.24-8.6,0.24-12.89-6.37-.15-12.74-0.13-19.11,0,0,4.39-.34,8.8.2,13.16a38,38,0,0,0,5.25,3c-5,.06-10,0.33-14.92-0.37q2.32-1.1,4.68-2.12c0.47-6.47.14-13,.26-19.44,0-2.95.23-5.95-.5-8.84-1.54-.9-3.23-1.52-4.83-2.3h0Z" transform="translate(-17.78 -373.59)"/>
    <path class="cls-1" d="M130.86,375.89a110.56,110.56,0,0,1,14.9-.16c-1.55.88-3.2,1.59-4.66,2.6-0.82,4-.62,8.1-0.44,12.14,6.42,0,12.85.1,19.28-.06a75.81,75.81,0,0,0-.4-12.33c-1.62-.7-3.23-1.44-4.8-2.24a82.54,82.54,0,0,1,14.83.1l-4.86,1.94c-0.89,6.34-.29,12.77-0.47,19.15,0.09,3-.34,6.21.52,9.18,0.93,1.25,2.79,1.16,4.12,1.78-0.06.28-.2,0.82-0.26,1.1C164.09,409,159.57,409,155,409c1.48-1,3.23-1.77,4.52-3.07,0.79-4.3.41-8.71,0.31-13.06-6.39-.21-12.8-0.16-19.2,0a79.26,79.26,0,0,0,.31,13.69c1.79,0.6,3.45,1.52,5.19,2.25a79.52,79.52,0,0,1-14.72-.15c1.39-1.25,4.53-1.26,4.62-3.62,0.46-5.66,0-11.35.19-17-0.11-3.23.39-6.59-.62-9.7-1.24-1.29-3.33-1.44-4.78-2.4h0Z" transform="translate(-17.78 -373.59)"/>
    <path class="cls-1" d="M170.1,376.15c5-1,10.21-.58,15.27-0.26-1.7,1.22-5.45,1.06-5.26,4,0.05,7-.89,14.3.84,21.19,1.83,7.46,13.54,8.51,17.14,2,2.54-4.24,1.83-9.36,1.93-14.07-0.07-3.64.28-7.39-.81-10.92-1.62-.86-3.35-1.49-5-2.24,4.26-.43,8.56-0.07,12.83-0.36l0,1.08a22.68,22.68,0,0,0-3.83,1.54c-2,8.36,1.09,17.43-2.51,25.49-2.52,5.43-9.32,6.82-14.74,6-4.37-.35-8.61-3.3-9.56-7.74-1.79-7.93-.2-16.12-1.17-24.14q-2.56-.74-5.09-1.59h0Z" transform="translate(-17.78 -373.59)"/>
    <path class="cls-1" d="M259.62,375.87c4.78-.53,9.59-0.08,14.38-0.4v1.31c-1.41.32-2.8,0.65-4.19,1-0.52,9.05-.45,18.15-0.13,27.19-0.17,2.47,2.69,2.25,4.31,3,0,0.3,0,.88,0,1.17-4.75-.17-9.5-0.07-14.26-0.12,1.65-1.06,3.59-1.68,5.06-3,0.74-5.28.35-10.64,0.45-16,0-3.92.23-7.91-.62-11.76-1.56-1-3.39-1.54-5-2.39h0Z" transform="translate(-17.78 -373.59)"/>
    <path class="cls-1" d="M275,375.86c3.08-.38,6.19-0.18,9.29-0.29,6.47,9.19,14.49,17.14,22,25.44-0.27-7.69.63-15.45-.73-23.07-1.82-.59-3.65-1.18-5.42-1.89,4.58-.82,9.29-0.45,13.91-0.22-1.52,1.43-5.1,1.44-5,4.15-0.76,10.16.23,20.39-.52,30.56-8.32-9.46-16.74-18.83-25-28.37,0.11,7.31-.38,14.65.25,21.94-0.23,3.31,3.73,3.4,5.78,4.83-4.55.09-9.1,0.17-13.65-.12,1.64-.73,3.15-1.71,4.82-2.38,0.48-8.5.27-17,.22-25.53,0.25-3.33-4-3.57-6-5.05h0Z" transform="translate(-17.78 -373.59)"/>
    <path class="cls-1" d="M420.25,375.76c3.1-.21,6.2-0.1,9.3-0.21,6.51,9.23,14.61,17.21,22.16,25.57-0.21-7.58.78-15.31-.88-22.77-1.7-1-3.59-1.65-5.34-2.54a76.32,76.32,0,0,1,14,.16c-1.63.74-3.26,1.42-4.91,2.08-1.19,10.76-.39,21.62-0.54,32.42-8.71-9.13-16.81-18.85-25.2-28.28,0.06,8.13-.82,16.42.81,24.44A33.72,33.72,0,0,0,434,407.9c0,0.29,0,.88,0,1.17q-6-.15-12,0c0-.34,0-1,0-1.35,1.28-.24,2.56-0.47,3.84-0.72,1-6.29.59-12.67,0.69-19,0-3,.24-6-0.43-8.94-1.68-1.5-3.92-2.16-5.83-3.29h0Z" transform="translate(-17.78 -373.59)"/>
    <path class="cls-1" d="M471.43,376.48a41.93,41.93,0,0,1,19.17,0c5.57,1.64,8,9.06,4.68,13.73-2.66,3.82-7.67,4.54-12,4.57,2.61-1.83,6.2-2.66,7.77-5.67,1.3-3.36,1.06-7.92-2.06-10.23-2.12-1.77-5.07-1.5-7.65-1.69-0.26,8.28,0,16.56-.15,24.83,0.16,1.57-.28,3.53,1,4.74q1.86,0.66,3.78,1.14c0,0.3,0,.9,0,1.2-4.48-.16-9-0.15-13.44,0l-0.12-1a31.39,31.39,0,0,0,3.87-1.66c0.86-4.07.28-8.28,0.43-12.41-0.15-5.13.35-10.3-.27-15.4-1.63-.83-3.38-1.4-5.05-2.12h0Z" transform="translate(-17.78 -373.59)"/>
    <path class="cls-1" d="M395.4,375.69c6-1.75,13-1,17.86,3.11,7.49,6.37,7.76,19.28.61,26-8,8.26-24.18,6.07-29-4.63-4.53-9.2.49-21.75,10.57-24.49h0Zm0.93,1.72c-5.49,1.95-8,8.14-7.85,13.59,0.11,5.72,2.06,12.16,7.21,15.31s12.81,1.68,15.85-3.74c3.43-6.19,2.7-14.19-.74-20.22a12.06,12.06,0,0,0-14.47-4.94h0Z" transform="translate(-17.78 -373.59)"/>
    <path class="cls-1" d="M514.2,375.08c5.65-.9,12,0.37,16.12,4.56,6.93,6.8,6.53,19.47-.87,25.79-8.34,7.61-23.94,5.09-28.53-5.55-4.82-10.08,2-23.55,13.28-24.8h0Zm-1.82,2.41c-9.06,3.92-9.3,16.54-5,24.1,3.27,6.68,13.17,8.67,18.48,3.3,5.4-5.7,4.9-14.87,1.67-21.54-2.53-5.6-9.57-8.16-15.19-5.86h0Z" transform="translate(-17.78 -373.59)"/>
  </g>
</svg>
