<?xml version="1.0" encoding="utf-8"?>
<!-- Generator: Adobe Illustrator 21.1.0, SVG Export Plug-In . SVG Version: 6.00 Build 0)  -->
<svg version="1.1" id="Layer_1" xmlns="http://www.w3.org/2000/svg" xmlns:xlink="http://www.w3.org/1999/xlink" x="0px" y="0px"
	 viewBox="0 0 2500 375" style="enable-background:new 0 0 2500 375;" xml:space="preserve">
<style type="text/css">
	.st0{fill:#FFFFFF;}
</style>
<path class="st0" d="M151.4,88.9h59.7l18.1-79.2H17.4L0,88.9h47.2L7.6,266.7c-2.1,11.8-4.9,25-4.9,36.8c0,34.7,15.3,54.9,36.8,65.3
	h116.7l16.7-74.3h-20.1c-18.8-0.7-38.9-2.1-38.9-31.2c0-6.9,2.8-19.4,4.9-29.9C118.8,233.3,151.4,88.9,151.4,88.9z"/>
<path class="st0" d="M256.9,366.7h172.9c45.1-21.5,67.4-58.3,82.6-82.6l-86.8-31.2c-10.4,17.4-30.6,52.1-84.7,52.1
	c-23.6,0-43.1-9-55.6-27.1c-10.4-15.3-11.1-30.6-11.1-57.6h252.1c1.4-15.3,2.8-30.6,2.8-45.8C529.2,60.4,450,16,368.8,16
	c-138.2,0-196.5,120.1-196.5,202.1C172.2,275.7,197.2,336.8,256.9,366.7L256.9,366.7z M370.1,88.9c12.5,0,25.7,3.5,36.1,9.7
	c29.2,16,29.9,43.8,29.9,56.3H288.2C299.3,129.2,318.1,88.9,370.1,88.9z M888.2,174.3C888.2,60.4,809,16,727.8,16
	c-137.5,0-195.8,120.8-195.8,202.1c0,57.6,25,118.8,84.7,148.6h173.6c45.1-21.5,67.4-58.3,82.6-82.6l-86.8-31.2
	c-10.4,17.4-30.6,52.1-84.7,52.1c-23.6,0-43.1-9-55.6-27.1c-11.1-15.3-11.1-30.6-11.1-57.6h252.1
	C886.8,204.9,888.2,189.6,888.2,174.3L888.2,174.3z M647.2,154.9c11.1-25.7,30.6-66,81.9-66c12.5,0,25.7,3.5,36.1,9.7
	c29.2,16,29.9,43.7,29.9,56.3H647.2z M1129.9,19.4c-53.5,0-83.3,31.9-100.7,50.7l10.4-41.7H935.4l-77.1,338.2h103.5l40.3-176.4
	c6.2-27.8,14.6-54.9,31.9-72.2c10.4-10.4,25.7-18.8,41.7-18.8c12.5,0,38.9,6.9,38.9,38.9c0,10.4-2.1,20.8-4.2,31.9L1067.4,366h103.5
	l50-218.8c2.1-12.5,4.9-25.7,4.9-38.2C1225.7,50.7,1182.6,19.4,1129.9,19.4L1129.9,19.4z"/>
<path class="st0" d="M2416,266c-6.9-51.4-18.8-76.4-55.6-81.3h-25.7V359h43.8c50.7-3.5,109.7-42.4,121.5-124.3v128.5h-259.7V359
	h38.2V18.7h-27.1V284c-2.1,28.5-13.9,45.1-25.7,60.4c-16,18.8-34.7,22.9-43.8,25.7c-54.2,11.8-116,0.7-143.8-40.3
	c-6.9-13.2-11.8-20.1-12.5-63.2V18.8h-31.9v-4.2h120.1v4.2h-32.6v294.4c-0.7,15.3,9.7,35.4,38.2,51.4c15.3,6.9,41,4.9,55.6,2.1
	c11.8-1.4,18.8-4.9,28.5-9.7c19.4-9.7,44.4-47.2,43.8-72.9v-266h-41.7v-4.2h279.2v116c-3.5-13.9-5.6-36.1-17.4-58.3
	c-20.1-39.6-45.8-55.6-90.3-54.2h-42.4v161.8h26.4c37.5-3.5,49.3-22.9,54.9-70.1L2416,266L2416,266z"/>
<path class="st0" d="M2018.1,223.6h-20.8v137.5c-8.3-14.6-18.1-22.2-38.9-16.7c-29.2,13.9-64.6,28.5-84.7,27.8
	c-21.5,0.7-42.4-6.9-62.5-16.7c-69.4-46.5-94.4-134-76.4-218.1c13.2-53.5,51.4-113.2,107.6-131.2c56.2-20.8,94.4,38.9,132.6-2.8
	v129.9c-13.2-46.5-34.7-106.9-87.5-125c-31.9-6.9-61.1,7.6-74.3,31.9c-29.2,63.9-30.6,229.9,5.6,298.6c4.9,10.4,24.3,30.6,54.9,29.2
	s68.1-20.8,68.1-47.9v-96.5h-20.8v-4.2h97.2L2018.1,223.6L2018.1,223.6z M1645.1,348.6c-29.9,20.8-67.4,31.2-106.2,22.9
	c-48.6-10.4-93.1-56.2-109.7-102.8c-21.5-68.7-13.2-154.9,34-209c36.8-36.8,81.9-60.4,135.4-48.6c48.6,10.4,98.6,59.7,111.8,107.6
	C1738.2,201.4,1716,295.1,1645.1,348.6L1645.1,348.6z M1620.1,30.6c-16.7-18.1-51.4-23.6-79.2-13.2c-50,25.7-53.5,93.1-57.6,148.6
	c-2.8,38.2-4.2,136.8,36.8,188.2c16.7,16.7,48.6,18.8,69.4,13.2c61.8-22.9,63.9-93.1,68.7-150.7v-1.4
	C1661.1,150.7,1654.2,71.5,1620.1,30.6L1620.1,30.6z"/>
<path class="st0" d="M1483.3,18.8h-34c-36.1,113.9-73.6,234-109.7,346.5c-7.6-18.1-13.9-34.7-21.5-54.9L1209,18.8h-25v-4.2h111.8
	v4.2h-26.4l93.1,251.4l1.4,4.9c26.4-83.3,54.9-170.8,81.9-256.3h-37.5v-4.2h75C1483.3,14.6,1483.3,18.8,1483.3,18.8z"/>
</svg>
