<svg xmlns="http://www.w3.org/2000/svg" viewBox="0 0 709.5 161.7">
  <defs>
    <style>
      .cls-1 { fill: #fff; }
    </style>
  </defs>
  <g id="Layer_2" data-name="Layer 2">
    <path class="cls-1" d="M626.4 57.3V29.5c0-8 1.3-9.4 9-11.4l60-15.6c.5-.2 1.2-.6 2-.7 5.6-1.3 7.8.2 8 6V29c0 6-2 8.3-8 9.6L659 46.8c-6 1.3-6.5 1.8-6.5 7.7 0 4.3 0 8.7.2 13 .2 5 1.7 6.3 6.5 5.7 7-1 14-2 21-3.2 5-.8 10-1.7 15-2 6-.6 7.2.7 7.7 6.8.2 5 .7 10 .8 15 0 6.4-2.4 9-8.5 9.6l-34.3 3a29.5 29.5 0 0 0-4 .6c-2.5.6-4 2-4 4.8 0 5-.2 10.2 0 15.2.2 4.5 1.6 5.8 6 5.7 6.7-.2 13.3-.7 20-1 7.6-.2 15.2-.4 22.8-.4 4.5 0 6.3 1.8 6.6 6.3.5 6.6.6 13.3 1 20a7.2 7.2 0 0 1-7.7 8l-33-1h-27c-2 0-3.8 0-5.7-.2-4.4-.2-6.8-2.3-7.6-6.5a34.6 34.6 0 0 1-.2-5.6c0-11 0-21.7-.3-32.5l-1.7-58.7zm-72 79.6c0 4.7.2 9.6 0 14.4 0 6-2 7.6-8 7.7-3.7.2-7.4.2-11 0-4.4-.2-6.3-2-6.8-6.2a43.3 43.3 0 0 1 0-5L528 94c-.2-15-.7-30-1-45a48 48 0 0 1 0-4.7c.3-4.3 1.7-6 6-7 4-1 8.2-1.6 12.2-2 9.4-1.4 18.7-3 28.2-2 8 .6 15 3.5 20.7 9.6a28.8 28.8 0 0 1 7 13.2c3.7 16.4.8 31.4-9.7 45-4.6 5.8-5.2 4-1.5 12 6 12.3 12 25 17.8 37.3 3.8 8 3 9.7-6 9.7h-9c-6 0-10.4-2.7-13-8.4-3.6-8.5-7.5-16.8-11.2-25.2l-2-4.4c-2.2-4.6-5.8-6.2-10.6-4.5a3.4 3.4 0 0 0-1.6 2.6V137zm-1.3-61.4h.2v7.6c0 9.4.2 9.5 9.2 7 1-.3 2.3-.5 3.3-1 10-3.8 12.4-12.4 11-21.2a9.2 9.2 0 0 0-4.7-6.4c-5-3-10.6-2.7-16-1.8-2 .3-3 1.8-3 4 .2 4 0 7.8 0 11.7zM125 76V40a24 24 0 0 1 .7-6c.8-3.2 3-4.5 6-4 4.5.4 8.8 1 13 2 4.2.7 6 2.8 6.3 7v5.6l-.5 58c0 6.3.5 12.4 3 18.3 2.7 6.7 7.7 10.4 14.6 10.4s11.8-3 14.5-9.6a36.5 36.5 0 0 0 2.8-14c0-14.8 0-29.6.3-44.3 0-6.5.5-13 1-19.3 0-4.5 1.3-5.8 6-5.6a134 134 0 0 1 14.4 1.7c3.4.5 5 3.3 5.6 6.3a20.3 20.3 0 0 1 0 4.8l-1 63a58 58 0 0 1-6 23.8 36.5 36.5 0 0 1-25.6 20.3c-8 2-16.3 2.6-24.6.6s-15-5.8-20-12.6A50.6 50.6 0 0 1 126 123a175 175 0 0 1-1.6-20c-.2-9 .2-27 .4-27zm-70 15.4a36.7 36.7 0 0 0 2-3.5q11-27.5 22.3-55a50.7 50.7 0 0 1 3-6.3c2-3.2 4.7-5 8.6-4.4 4.5.8 9 1.6 13.5 2.7 4 1 5.4 3.2 4 7l-9 22.6-40.6 98a31 31 0 0 1-3 6.2 3.2 3.2 0 0 1-5.8-.2 26.3 26.3 0 0 1-2.4-5.6L20.6 68.2 1.6 8.4C1 6.2-1 3.6 1 1.4c2.5-3 5.2-.3 7.7.2 4.5 1 8.8 2.8 13.2 3.8C28 7 31.5 10.7 33.2 17 39.6 40 46.2 63 53 86.3l1.7 5zm420.8-11.6V52.2c0-8 2.2-10 10.2-10.6 3.2-.2 6.4-.4 9.7-.3 3.7 0 5 1.3 5.3 5a20.7 20.7 0 0 1 0 2c.4 20 1 40 1 60 0 9.8-1.3 19.3-5.2 28.4-5 11.4-13.5 18.5-25.3 21.6a59 59 0 0 1-32.6-.8c-11-3.3-18-10.6-22-21a64.6 64.6 0 0 1-4.4-22.3c-.2-14.3-.2-28.6-.3-43l-.3-15.8c-.2-6.7 2-9.2 8.8-9.6 3.4-.2 7-.2 10.4-.2 6 0 7.5 1.5 7.5 8v49a84.6 84.6 0 0 0 1.3 13.7c1.6 9.3 6.3 14 15 15.7a15.6 15.6 0 0 0 17.3-8.5 36 36 0 0 0 3.8-16V79.8zM348.6 47H383a41.4 41.4 0 0 1 5 .2c3.6.4 5.8 2.6 6 6.3a140 140 0 0 1 0 14.5c-.3 4.4-2.7 6.4-7.4 6.5-5.5.2-11 0-16.6 0a44.3 44.3 0 0 0-4.8.3 3 3 0 0 0-3 3.2v71.2c-.3 7-2.6 9.3-9.8 9.5h-9.6c-6.7-.2-9-2.6-9.2-9.4V101 79.4c0-4.7-.4-5-5.3-5h-16.6c-6.3-.2-8.5-2.5-8.6-9V54c.2-4.8 2-6.7 6.8-6.8h13l13.3.3h12.5V47zm-111.7 60c0-12.5-.2-25 0-37.4 0-6.6.3-13.3.7-20 .2-4.5 2.4-6.6 7-6.4 4.4 0 8.7.6 13 1.2A7.3 7.3 0 0 1 264 51a27 27 0 0 1 0 3.3l-.4 54c0 6-.6 11.8-.7 17.8-.2 6.2 0 6.4 6 6.4l28.2.3c6.8 0 9.2 2.3 9.3 9 0 3.7-.6 7.3-.8 11 0 3.4-2.2 5-5 5.6a21.5 21.5 0 0 1-5 .4h-52.3c-4.6-.3-6.6-2.4-7-7V147c0-13.4.3-40 .4-40z" id="Layer_1-2" data-name="Layer 1"/>
  </g>
</svg>
